<svg width="34" height="40" viewBox="0 0 34 40" fill="none" xmlns="http://www.w3.org/2000/svg">
<path fill-rule="evenodd" clip-rule="evenodd" d="M25.283 25.762C26.6845 24.3645 27.8229 22.8857 28.5997 21.7762C29.1496 20.9907 29.4246 20.598 29.4246 20C29.4246 19.402 29.1496 19.0093 28.5997 18.2238C26.5879 15.3502 22.1506 10 17 10C15.5398 10 14.1368 10.43 12.8303 11.1117L16.2088 15.0865C16.4652 15.0297 16.7296 15 17 15C19.3472 15 21.25 17.2386 21.25 20C21.25 20.3181 21.2248 20.6292 21.1765 20.9308L25.283 25.762ZM13.7314 16.804C13.1186 17.6706 12.75 18.7846 12.75 20C12.75 22.7614 14.6528 25 17 25C18.0331 25 18.98 24.5664 19.7166 23.8454L23.0155 27.7265C21.2236 29.0456 19.1754 30 17 30C11.8494 30 7.41208 24.6498 5.40028 21.7762C4.85039 20.9907 4.57544 20.598 4.57544 20C4.57544 19.402 4.85039 19.0093 5.40028 18.2238C6.45517 16.7171 8.17692 14.5294 10.3187 12.7891L13.7314 16.804Z" fill="white" fill-opacity="0.5"/>
<path d="M7.08337 3.33334L29.75 30" stroke="white" stroke-opacity="0.5" stroke-width="2"/>
</svg>
